<svg id="SvgjsSvg1011" width="288" height="288" xmlns="http://www.w3.org/2000/svg" version="1.1" xmlns:xlink="http://www.w3.org/1999/xlink" xmlns:svgjs="http://svgjs.com/svgjs"><defs id="SvgjsDefs1012"></defs><g id="SvgjsG1013" transform="matrix(1,0,0,1,0,0)"><svg xmlns="http://www.w3.org/2000/svg" fill="none" viewBox="0 0 24 24" width="288" height="288"><path fill="#4d1b98" fill-rule="evenodd" d="M12 22c5.523 0 10-4.477 10-10S17.523 2 12 2 2 6.477 2 12s4.477 10 10 10Zm3.536-13.536A1 1 0 0 1 16.95 9.88l-5.653 5.653-.004.004a.997.997 0 0 1-1.414 0l-.004-.004-2.825-2.825a1 1 0 1 1 1.414-1.414l2.122 2.121 4.95-4.95Z" clip-rule="evenodd" class="color000 svgShape"></path></svg></g></svg>